<mxfile host="app.diagrams.net" modified="2022-06-10T16:43:59.554Z" agent="5.0 (Macintosh; Intel Mac OS X 10_15_7) AppleWebKit/537.36 (KHTML, like Gecko) Chrome/102.0.5005.61 Safari/537.36" etag="5roa_JVKZSZoOQtOq2Z-" version="19.0.3" type="github">
  <diagram id="Csz54WcsCxggMX012M2-" name="Page-1">
    <mxGraphModel dx="1426" dy="666" grid="1" gridSize="10" guides="1" tooltips="1" connect="1" arrows="1" fold="1" page="1" pageScale="1" pageWidth="827" pageHeight="1169" math="0" shadow="0">
      <root>
        <mxCell id="0" />
        <mxCell id="1" parent="0" />
        <mxCell id="Z5ivjOflvWGN5nWNWYl_-1" value="" style="rounded=0;whiteSpace=wrap;html=1;" vertex="1" parent="1">
          <mxGeometry x="320" y="120" width="30" height="160" as="geometry" />
        </mxCell>
        <mxCell id="Z5ivjOflvWGN5nWNWYl_-2" value="" style="shape=image;verticalLabelPosition=bottom;labelBackgroundColor=default;verticalAlign=top;aspect=fixed;imageAspect=0;image=data:image/png,iVBORw0KGgoAAAANSUhEUgAAAWUAAADdCAYAAABja2MXAAAK2GlDQ1BJQ0MgUHJvZmlsZQAASImVlwdUk8kWx+f70kNCSSACUkLvSCeAlNBDEaSDqIQkJKHEkBBUxIYsruBaEBEBG7oiouDqCshaEAsWFsHeN8iioD4XCzZU3hd4hN1957133j1nMr9zc+fOvZOZc/4BgBzKFouzYXUAckR5kpgQf3pScgod9xRAwBDQgClwZ3OkYmZ0dARAbGr+q72/jUQjdsNOkevfv/+vRuHypBwAoFSE07lSTg7CHch4zhFL8gBAHUL8JovzxAruRVhTghSI8O8K5k/yRwWnTzCaNBETFxOAMB0APInNlvABINkifno+h4/kISl6cBBxhSKECxH24QjYXIRPImybk7NIwUMIWyLxYgDIyOkARvqfcvL/kj9dmZ/N5it5sq8JwwcKpeJs9tL/82j+t+Vky6b2MEcGSSAJjVHsh5zf3axF4UoWpc+JmmIhd7ImBQtkofFTzJEGpEwxlx0YrlybPSdiijOEwSxlnjxW3BTzpEGxUyxZFKPcK0MSwJxitmRiXyLCcllWvNIv4LGU+QsEcYlTnC9MmDPF0qzY8OmYAKVfIotR1s8ThfhP7xus7D1H+qd+hSzl2jxBXKiyd/Z0/TwRczqnNElZG5cXGDQdE6+MF+f5K/cSZ0cr43nZIUq/ND9WuTYPuZzTa6OVZ5jJDoueYiAEkYANOHS1KQIgj7ckT9FIwCLxUomQL8ijM5HXxqOzRBx7W7qTg5MTAIq3O3kd3tIm3iREuzLty+0AwKMUcfKnfWwTAE48BYD6ftpn8ga5SpsAONXLkUnyJ31oxQcG+fXUgCbQAQbABFgCO+AE3IAX8ANBIAxEgTiQDBYgtQpADpCAxaAQrAYloAxsAltBNdgF9oID4DA4ClrBSXAWXARXQS+4BR4AORgEL8AIeA/GIAjCQWSICulAhpAZZAM5QQzIBwqCIqAYKBlKg/iQCJJBhdAaqAwqh6qhPVAD9BN0AjoLXYb6oHtQPzQMvYE+wyiYBGvC+rA5PAtmwEw4HI6D58N8OBcugIvhDXAVXAcfglvgs/BV+BYsh1/AoyiAUkHRUEYoOxQDFYCKQqWgMlAS1ApUKaoSVYdqQrWjulA3UHLUS9QnNBZNRdPRdmgvdCg6Hs1B56JXoNejq9EH0C3o8+gb6H70CPobhozRw9hgPDEsTBKGj1mMKcFUYvZjjmMuYG5hBjHvsVgsDWuBdceGYpOxmdhl2PXYHdhmbAe2DzuAHcXhcDo4G5w3LgrHxuXhSnDbcYdwZ3DXcYO4j3gVvCHeCR+MT8GL8EX4SvxB/Gn8dfwz/BhBnWBG8CREEbiEpYSNhH2EdsI1wiBhjKhBtCB6E+OImcTVxCpiE/EC8SHxrYqKirGKh8pcFaHKKpUqlSMql1T6VT6RKCRrUgAplSQjbSDVkzpI90hvyWSyOdmPnELOI28gN5DPkR+TP6pSVe1VWapc1ZWqNaotqtdVX6kR1MzUmGoL1ArUKtWOqV1Te6lOUDdXD1Bnq69Qr1E/oX5HfVSDquGoEaWRo7Fe46DGZY0hCo5iTgmicCnFlL2Uc5QBKopqQg2gcqhrqPuoF6iDmlhNC02WZqZmmeZhzR7NES2KlotWgtYSrRqtU1pyGopmTmPRsmkbaUdpt2mfZ+jPYM7gzVg3o2nG9RkftGdq+2nztEu1m7VvaX/WoesE6WTpbNZp1Xmki9a11p2ru1h3p+4F3ZczNWd6zeTMLJ15dOZ9PVjPWi9Gb5neXr1uvVF9A/0QfbH+dv1z+i8NaAZ+BpkGFQanDYYNqYY+hkLDCsMzhs/pWnQmPZteRT9PHzHSMwo1khntMeoxGjO2MI43LjJuNn5kQjRhmGSYVJh0moyYGppGmhaaNpreNyOYMcwEZtvMusw+mFuYJ5qvNW81H7LQtmBZFFg0Wjy0JFv6WuZa1lnetMJaMayyrHZY9VrD1q7WAusa62s2sI2bjdBmh02fLcbWw1ZkW2d7x45kx7TLt2u067en2UfYF9m32r+aZTorZdbmWV2zvjm4OmQ77HN44EhxDHMscmx3fONk7cRxqnG66Ux2DnZe6dzm/NrFxoXnstPlrivVNdJ1rWun61c3dzeJW5PbsLupe5p7rfsdhiYjmrGecckD4+HvsdLjpMcnTzfPPM+jnn942XlleR30GpptMZs3e9/sAW9jb7b3Hm+5D90nzWe3j9zXyJftW+f7xM/Ej+u33+8Z04qZyTzEfOXv4C/xP+7/IcAzYHlARyAqMCSwNLAniBIUH1Qd9DjYOJgf3Bg8EuIasiykIxQTGh66OfQOS5/FYTWwRsLcw5aHnQ8nhceGV4c/ibCOkES0R8KRYZFbIh/OMZsjmtMaBaJYUVuiHkVbROdG/zIXOzd6bs3cpzGOMYUxXbHU2IWxB2Pfx/nHbYx7EG8ZL4vvTFBLSE1oSPiQGJhYnihPmpW0POlqsm6yMLktBZeSkLI/ZXRe0Lyt8wZTXVNLUm/Pt5i/ZP7lBboLshecWqi2kL3wWBomLTHtYNoXdhS7jj2azkqvTR/hBHC2cV5w/bgV3GGeN6+c9yzDO6M8Y4jvzd/CHxb4CioFL4UBwmrh68zQzF2ZH7KisuqzxrMTs5tz8DlpOSdEFFGW6Pwig0VLFvWJbcQlYnmuZ+7W3BFJuGS/FJLOl7blaSIiqVtmKftO1p/vk1+T/3FxwuJjSzSWiJZ0L7Veum7ps4Lggh+XoZdxlnUWGhWuLuxfzly+ZwW0In1F50qTlcUrB1eFrDqwmrg6a/WvRQ5F5UXv1iSuaS/WL15VPPBdyHeNJaolkpI7a73W7voe/b3w+551zuu2r/tWyi29UuZQVln2ZT1n/ZUfHH+o+mF8Q8aGno1uG3duwm4Sbbq92XfzgXKN8oLygS2RW1oq6BWlFe+2Ltx6udKlctc24jbZNnlVRFXbdtPtm7Z/qRZU36rxr2mu1atdV/thB3fH9Z1+O5t26e8q2/V5t3D33T0he1rqzOsq92L35u99ui9hX9ePjB8b9uvuL9v/tV5ULz8Qc+B8g3tDw0G9gxsb4UZZ4/Ch1EO9hwMPtzXZNe1ppjWXHQFHZEee/5T20+2j4Uc7jzGONf1s9nPtcerx0haoZWnLSKugVd6W3NZ3IuxEZ7tX+/Ff7H+pP2l0suaU1qmNp4mni0+Pnyk4M9oh7nh5ln92oHNh54NzSedunp97vudC+IVLF4Mvnutidp255H3p5GXPyyeuMK60XnW72tLt2n38V9dfj/e49bRcc7/W1uvR2943u+/0dd/rZ28E3rh4k3Xz6q05t/pux9++eyf1jvwu9+7Qvex7r+/n3x97sOoh5mHpI/VHlY/1Htf9ZvVbs9xNfqo/sL/7SeyTBwOcgRe/S3//Mlj8lPy08pnhs4Yhp6GTw8HDvc/nPR98IX4x9rLkHxr/qH1l+ernP/z+6B5JGhl8LXk9/mb9W5239e9c3nWORo8+fp/zfuxD6Uedjwc+MT51fU78/Gxs8Rfcl6qvVl/bv4V/ezieMz4uZkvYE1IAhQw4IwOAN/WINk5GtAOiy4nzJrX1hEGT/wcmCPwnntTfE+YGQL0fAPGrAIhANMpOZJghTEJmhSSK8wOws7Ny/MukGc5Ok7lIiLLEfBwff6sPAK4dgK+S8fGxHePjX/chxd4DoCN3UtMrDIto+d0UBXUbrAB/t0m9/6ce/z4DRQUu4O/zPwFm/xgLEgepwAAAADhlWElmTU0AKgAAAAgAAYdpAAQAAAABAAAAGgAAAAAAAqACAAQAAAABAAABZaADAAQAAAABAAAA3QAAAAB5UOu8AABAAElEQVR4Ae19B2AkxZX2k2aUpZU25xzZzMLCGlhyXgMmY7AxjuBwTne24XwO53DYxufDNr8DGBywAWOSycFLzmkTm3PWrqTVKmfpf9+rrp6e3DPTM5rRVu2Ouqe76tWr71V99fpVzUxeb29vHzlSX18fOV+OW+Y0RxDIy8sj5wtqO22K83QmdCmpQ+rJS2dVaJm0Nd+X76oe7u+WbunXi7gK2CE/P75uYh+NGwpGSNqmuOU8x3ttX5zHS2wdq3y4nNhlud9Y+EXWMHbpbLwbNBTQKLYXXnl58W3mSXt6e1R/ZGE+a9z6teCpH/+uPjXHHEdg1W+/SX6/n3w+H8361A8z3hp09D5NflEIxjul1AQDUgZRxUuK/EDM8fPGkxX/PsiPx3i+T46x8utJTPlIkXVb+ZtvCMFr28785A9iiYxzr49lQTk1gcfJbN2GYblNfcDPXYmszOXU3QE1bNUHMpZ+5LiR1kYwljxW1t3xbermev08Zm1STmu9RnhGEaivr6eioiIqKSnJaL2RK8MISGcHh2yQhdtqNAnBm0+nXg40wGAy0B3XQk4xoUgTWCUh6AiY1dbWUmFhoWe2daFWqJb8Hlo6kmvcHWW8PnWjg1Nth9kDXYAv2k80jgxe6xomDx55HzU0NIgjhXErpKw6QVhucyFHEaipqaHy8nJrcGe+EcrRUB07U30L9TDdxm0sdFNk7BylcYulmMENa8Sv4uDBg1RcXEwVFRXM8fHbGl8i52DcRDu38gRA1J1J/CK0xFl9NCii5HESscKRBbhtfwRVUr2Ux5NBTW2Nsm15hfGUUwU0G8sfOnRI1IJX1W9JBq9zVKRTE/YyQS4gZjeDS3RLpz5attJLCIyhcK1aFNjq6uqotLRUQhgg59SS0s0VXiEV9XFD4Ncz3OohSB9D8nn+1olLjhNxMDZ5VFd3SBwpH4e6jKccjM6AeNfW1kbt7e3U3d2dJe3J0KhNoBpFRrkVwmhubpZJp6uryzPbgljdTBaBjpRhL9kNEQeUU5OE9T7bPGKnmqHnDY1NlM/x5LKyMuMph4IzEN6DjHt6enihvLffmiMD3RrtJoQBM7ifMQCbeKEh1tN29da2rJf67+4pAzqJgmkk50hE7LwWgovzbS4RsVPvjo4O6uzskjFrFvqcyAyQc/0onykyjApbNHaJWiCVGwMnhBENBaddvbGtDmFEqzHadS7Htk1bCCNSaCLSNUs9dDOkXqwpiF444op1A6dZnmzbsp6GlLPcWMmo582ATabmyGUUN8PVycAgcVmNDGT5kzshDHvgRnKjI0Pv6mriIQxXYtOaSUwnNag+JZOEMmpa602X8IBtDSmnC2MjlxHQxKc4xOXzZ4rIoXO72YWhqsGAzoxeqj41AQQIJXpjkcdj7o1amWDGMMh85kY5SBIFQ/ATAVGr8eSGUi9AxKqTiUKeyM8GIRn62Eo2NNXo0C8IuB3knigXCGG4Epcx3aAXSBaslW1JEVziWlkhDF1cHxMXlFAJxIz7eAsZXvypHC6LijNUeUKaJp/ZkHLy2JmSCSCgdzskUCT5rC7JD5wMvfLyMkiWLnQTrEQvkE1mdHOhVvL2SLZkSNNhr4CeA4uInRAZUnaiYc49R0ATn+eCYwgMDNwYmexbmR7c1v5eu/7oJ8AuU0m8eAYuIW9eFAxRMoRIU9I/VLQt2z5JSXy2FjaknK2WGUh6ZZJd+FEWxOKaXDKmmzOEkSipJJo/0c4Twn6ui/dPCIO/LMK1hrmY0ZByLlotB3VWYQIM/nQTjAWOS3cZnJz9IYzMGNwlZJlRJkotiDQpPTPUj6Lokc7LhpTTia6RLQhkzBl14J0YwSTrKToqTOBUefLuCmQOO/WEAcZz/ZSBJoiCIfhlhC8zUok7I3mcy5Cyx4AacVEQyBy7sALZHcJQCCVKKonmj2IHzy+bEIbXkBpS9hpRIy8qAiaE4YDGhSsfvAvDUTaNpy7USmPt7kQP9BCGIWV3/cDkShGBjDrKlq6JEUzII3iK7Y1XfECHMABlRhz7jFQSz5Se3zek7DmkRmBUBDLKzAMrhKGgy1YSCglhRO0AHt8YoLswDCl73E+MuNgImBCGAx8XrrwOYSBOnqnkQq1wVTI64TIaPD8pPbN1ogqHyO0VQ8pukTL5UkYgw+NW9E2IYDKoIPQaUCEMQdsxcZgQRtLjZUB8S1xpcQGdcfQsKisuonc37aItew8mDYgpmGYEQHwJMOWSoybRlNHDaV9tPb2yZiv1JFDWuQtDPM64TXOQSty8qWRwMhY8PXf1qjZkxjMEzInNUVYIg4PJbkw0fsRgOmH2FOro6qYXV22kw83tyQGKEEamfnk6OQ0TLjUgSPmU+TPols9dQgV+H720cjN9/lf3irETRsMUSDsCMtCt0a72w0YnpNFDB9GPP30RTRo5lGoON9G1P/0zbdqTxITrkmECuoFYouvlKUgudAMZZ4aKU2wZAHShKNrz5YtPo0tPWkg9/EMMP7j7Sbr7X28nXLmEMLiU+u6SDNkrYS0TL5Dz4QsfG/icY4+iTp5xaxuaac7k0TR5zLAgJAqZrNERSor8tHjGeJo1cRShnE44L+CfYkGeWeNH0fEzJ3DeAn3bHPsJgWNnTKSxQ6to54E6GlZZTifMmRqkSZjdZsFuwb9LCNuD90ZUltGJcybTqCGDgmSEvXH0i7B7Hl+AXomEMFw61B5oqRZJAZyaOBMRGRhX0fQdO6ySYNsD9U3U3tlNZy6aRcWFweMNdkMaWVXOdpsSZjc9pksxpqePCxvTiWicbXlz3lMex49Bi6ZPoPe37KZNuw/Qp847gU6eM4027KwWrKePG0l/vfET9B6HNaYxWU8dO0Jm57/96x36yX3PSKf7/deuoZGDy2lPzWE6deEM8vHXAq7etoe+fNv9tJuvmeQxAiA+MFKM5GcbnHPsbGpsbaM7nniNvvXRc+isY2bR3198l9o6ugiD8nbLbrtr2W4Lwu127VnH09cuO4Oee3ctnXf8XKooK+HH5Db6rz8+Sk+9vTZK7Q5SiZLDm8uoR2OAo7t64TgEynmjSTQpMFFic1SEEEaEph03axKN5snxtkde5LDjTJozaQxNHzuc1mzfJ6oE7LaezmaHa1BpMdWz3b7Ndnua7TZj3Aj6y43XSahyGpebzu97+MlGj2mERHI55bynvGTWZCbUCnp59RZ6YeUGam3vpNMXzSTEmZHwtasgWQzonQfqpSM0sIEvXbqQjp46Vrxjny+fZrKHPGX0UPrVQy8IIc+fMo6uPO3YXLZt1uqOgQ5yiUUwEzhksXDaONq46yC9sGIjbd9fQ7MnjJIBiYahLOw6g+02eVSw3a6y7JbP9zGgz148h/7x8gp6+NWVVF5SSJ89/8So2AR004QZNat3N+JMUKgogJd31aZFEgCMkfBEetaxs6iptZ2eX7WJ3ly/nQaXl9DJ86bZpWDXSrbbOYtn0wOvrKSHLLtdb9ktPz+PZNLmMb2bn6J+/fAL1NDcao9pW1COnuQ0KRcV+OXRp7Glnd7euJ02cLxxW3WtDNzZPFid6YMd++gbdzxI//fg8/T4mx9QWUkRzZ401s7S0tZB3/njY3TbP1+iWzlPW0cngZhN6h8EPjR7Eo2oqqCXVm+mao4nv7NhJw1iT/c0Xj9wpiaH3X6p7TY52G73Ln+bfshxy5vveYo28yLw+OGDnSLCz+MQS3iB5K+Ajwd8CMMxv01mx2fh5PG0YXc1T7S1vHi7hVp4rJ26YLpMoE4k72G7/eivT9JP7n1a7DYuxG5reUz/++0PqTH9xpqwMe2UlUvnOU3Kk9jA86aMpW5eLLjkpKPphmVLZbGvkgfvyfw460wdXT28+Ncjl/bWqZBEZVmxnaWrp5da+ddkkeqaWiTWhRi0SWlCIAbxYbI9e9FR/Mu+fTSX1whuuupsGssDEr/OfTIP3sqyIlupHrZbm2W32qZWsVux9ZSkMzW2dgrxtbZ38WNwK/mteKW+H35U3l76v/ze6VU6mCtcIftKwGN2l98umOSJCyc+RLIVwnA2zZEDOy6GcXwfsf+v8GLfufwU0802RJjxqPEjHTmJQ1cd8r6Fw1X1bNtQuyEe3dWlvsZzX1295HWO6SBhOfQmp1nnJI4dw8CN/CgE4yL5ORSBFd1T5k+jPz7zum2KkkK/LN7BkFNGq4XAg+yB6VToz6cK9p6RxgyplLxNVqfQeQbkEWObBxC8NRVOyEwrhZMtYlaLSYFRPI3j/nMmjRY7Iv6oEybO6Xxv9sTR9P7mPXK5IMhug8RuzdwfnAmPx2hbRXEhjaysoA7uA7GS1i3xRa5YUuPcA/tZeETLmUn7hOqQUP9AOyLMGVg8P4NDi7gFrxeLuDohzHQ6L/i9tXGnvkRVlt0G8bjEU1Oo3SAPjlM7T8oTR2FM95FzTNuCcuwkZ0kZMeMzF80QQv70/95NK6xBOmxQKf3xm5+gqWOG0zxeQDjAOzKQsJhw6xcup617a2nZcXNk5l29ba9trlLe4/yjT11ET3Jo46xjZspC0lvrttv3c/LEGhhCLvYg0ScBElQDiFfa0UjHbZCAC67wHJqT506lqopS+jXH93/Ji0E6fedj59N15yxhu8+2SRl703/0qQvZbmvpTMtub4bY7eozFlMpx5KH8w6OSRx/fmvjDi0y+lGIRYMRPVvqd6ydDgCe/8fhZVWdw3Sp1x9LgtINW8/cKeaUpX5mSzxt6MsyZvCEOosn1JW8KP/pn99NTW2dUgDx5N985SreXcNeNI9fna5hu5WXFLPdSsWRQvzZmeZiTH/+Mtq8r47H9Gyqb2zh9aDAmHbmzaXznCVlzLSTeHZcu3MfbXHsXa1tbKVXOU41ix+Fjp05iZ58a60Qy15eoR89eBBvr5kqM+tvH3uF1vMODSzyISGGfIiN+pllJ1I+j4zlvLj04CsrcsmWoisGAV549O/ljfV9/NTg9ERlkPAIwaO52ovLme2kvGXbK5LRiPGkF+XsjN6cRCA+7Ko4jj8wcohDSC+s2RxUz3PvraVLeIF24fSx9lONsltriN1WBpVDHHnZ8fM4ZllE6Acg+/hJMV8Ap/glUs4B47hgZUyWymuG7dLP0C7VcjTfCmGozmZfn8+hxgqeRJ9fsckmZNxcs2MvbeYxPJmfYKfyB4V0wofAlh0/R2LNu2rq6VcPv6hvyXHfoUYaM4w/hDJ3GrV1ddHvH3lJxnRQphx8k7OkvGn3QfrQv90SEfKf/v053u72nLDTdCZnxCKx3e3f+EMl43hVv6ahifbXNUpZTcqIN/+AFxVaOO6IgbiNPWrEqnMh2X3fOkF78QK5qlfowFUesGqb815gX6oicuTg+5ArB5A2LmlSUBKS/atlobyqL486u3vok7fcHVHkm+t30tHX/4/cQ9wZSdntKd510yG64Uko1G7PvrtBVvBHDa2g7ftqqcWKQYuAKH+0bgEcomT09HJ8ks2tEAY6C9qkEj4gEulDIvVNbXTx92/X2XgBfoycPyN2W0Gjh1byE+7BICJHhr1M1F/69X00jon5AI9pkHRePvY3o97cTTlLypEgF06yiCjoPm6w19jS0U2rtuxhw0U2Ggbg5j0Hgopm+5s+9oiRoLtNIHzOtMkXQb6R2xq9XYH8gE0NKsgJTFD9SQyR9IZu8T7pd6C+kT+s0CDF8/npyFUbwMwKhEjVengN+AJs9FOZ8+LLDpgpft6UcijdkgthqLZI06Avmpig3viACV7REsb0Sh2ykDrcAhhNYv9fz3lSVn0Z1gYpBQDV56384YP1Ow/Q9gPsQXWHL/DgMR+PSfCOsWCYC0m3DQ0GIdnv7R4fredHGhXOa5HK6WvS41VdmAj4bbTJLSEMkyQ+2G3zPtgNq/SR7VZ9qIE+2L6X9vD3Zqik2uCeHPQTAXBG2QwkGFPc9Oh1YULRL0Xm6dfNhVohCjOZQ89A5wy5H/0t7LYmyG7BeZt5G+Q6Dj1u5z3KPT1qR1Vwjtx+l7OkLJ2R+6/tHbIdItl/d00Dffynf8JdsZR4SDzAdL/vYqPis/e5ktBGxIl1SowsQgcvMAm9piVHOqq8wByvPODIG/01lpFKxLsmZS0Bypbu9HFjt6ffWUd4hSbR3UW7oVakPhUqz9v3idrE29pjSoPdOYOrpwwIEgBhT5Ryn55im+EVLSEUea2M6eAc8OahIRysxPp1sJz+fpdTpCyDFsA7Rorj1BWWMiBRyCICV4WyIJOz7Ym2OVx9dFokdwSo8ob/FZ0wQQBLfiUNKQqm3qhwBaNcgd7SD9wonDHdEg9hZEw17ieu8QrBXLxlUGXGeFIIIufGtxO2rCdlGfiCsyaSZMdv4jO2E6j+PEfcWHBgJbzhLjdkHGsU6fIBvRS6KRCzDXCseu1MKZxY/cB1NWiTKpPYU0kKKsLIcSYM0YnzKGJ23ZgUlFJ9L45aIfItrEOupv8tniRRN165l7L6E32yncsiJPRT/UoVZhAcZGV9QpsdhAx9ExsUybZQg6OP0eSojq/whLLx8keWgzaBZFw/FkcWk9BVPcnFK6TwzvTgTg7HeG3x5L6MnQT0EwAd+CVQNCF9LbmIXEj0IqHC2ZU5u0mZAcY4T3KsR0VaBqTXQqPWlvgNITkm4/CtbQHPNHGpbktYvdvOHvrevhF2ovUOu+HmgmI/Nzk9yKMex90Sc4ZmQm4X9EJ/d+80ZA42HV5JHH4JYWhextF9l0q8Ml0ii8e3VjHaMatJWXlP0VSPdB3W1q9I99EjdO+IdL//r0lfkkEZiYAzoX9oHfHwUiNME4nsBpE90qlgmYlRy/olUI3qiwkUSKX5KOuCVOTJgllZPWFkRjcXaoW0PF7/Ccnu2VuEMDKDiWcqW4KympTd8yfA1wYIJZXIkGkSiXy3f67KnmPe4obtXq69uLSq6mZAabxVXgxaGbiOfc1uVITHp4jPTZ1uJMbP4xZj5Y1mTi+lue7P8duROW8ZtlUGdoudaC8Kphk/h3ilouNCfAizKkdWk7LyAKLhhU6rXzCAfkXLH3xdd67gq/3/TggtTI3E2hZWPKkLqXRq94/fQaplkl0kVJDA5Jcx3RIPYQRhmNY3yfYJbhPjZ0OYrBgXbcN28sCW8jRW5EKXZLNkNSmjUcp70s3TJIwjANcvfd/tMfuMhUlCv1S73LYl2/I5SEU8/sT1y+TjuP2AFUdNEIrqi+h7GUqRZ+igygUrITz06czo5kKtIB31m8Duen3Fm6MmYhzFTtg7Lx+39kZ+pqVk/ZY44V3pa5qIvYNIecuOGdw70QlJQtgCi3oq6Qkjc4MsIWUTyAx8pTW2ixS7sGTjP2KX2Fk9u6t01JjHE5tpm2Cidtc/gV2yZBmv1aH3BTMejjIiXdoWbJnPbeEWhYpL6r2utpd7mJrEGQDbjPZJUrL7u1BOeMoKJK+BtgZ/pnpyFEuHbnkLzoY2p9puDAL1Uh3Zm0ERrGfoO62zqheD2DXMerSFikzLe9UHXE8CGdMNeoFkM2GrRIHVtk28XFAIA8UTbB7g1y/lHVsecR7TmNgGuiWrX6LtSV/+7PeUAbMAnsDAThAv9H2pIsFy3mf3pkPBG8E/9HqFncZQaSyeDjdYDXrUqUeHN/WrWgLEgt9US3SsQO+Afkpi2v667ADSR+QP+qKXWMVomQvdBCsWAdUyhZlSKwUMdJeL0XTcEritPApyEHDW+5JxWhX7dk6QstXbYrckybuaoBIpnkyZUPno1DyCrLAFOncKHVyEQ6CSgUEqL4mtOTswSJq9C5Aw/9fEJ7qEyJC3Kf+BToooRDPnCIsiW7LwH0UuUTJ5fFkIxrVMtES1y3WRlDKqCcAFdOkcJmEtkDHAwCFA5UY3EYCMTuhUdw2T7ZQXIGJkjlIgTEJuX8gJUg61pXeQq8Ev32Tl7AkRKhCS4A6lySLPl3wHERJEh5aTCJUlfQmkqwrDOwXpIulrgU7N17X6GCRJLsiJcJd/5Ks/+/DlRbriGAWRx3NsotWn+oCQjGvdosny8rqemGBTGMkFbnb1iea3C7o8SUQXp0hukzgF/M2Gzst8rh884EIciUTshCMnSBkKq8EMInOq79055IaOSScRhxKo60GckoqJDC4MFJU/nz1kvNCe0DZFUgfY4oU2BdqZ7MBz1qBkKKxs9ZwZop5r8lb6eKFL1KrUjUgdIEIRwVP+AKsM6AUdXOgm9uOsUC1gwwgN8PCSC7Ui1iaLc9xXnfDhCY61t65lCNeI2vX/xZwhZau3pQUxRRqqI0iHZm7THVsfwypOtkdCEJeFXCU7WgcEwSK5JWZ4VEyu7CH7fD51LuShpET7K+QnI1nXhaP20qLpFk1a9OuAS9rCIzGeWqKObn50kZ7eEXO6lghcMqeg9BOuTuzL4OhjJHUziR2efvD1rSqE4bKviIKMHmdXTwBMxrgmSR8jtWxgX9M2xVFIGSfZnixbspoYDF7qaxGQfAUlS2fxUYnYAVJig9hREC0I+mL64HuBd4m1ETaEdwxoivjn2wsKCoScA/LinHE58VbCPiLtHd7AFaEiNYjj6cMKAeSMJNUHRD83YyHQGdOsndJLqdRHfr9fbKqfhGJX7p3dYteT6F3lOKhSWkd9TFTWwMkPR0rbNY/3x3Jf7KMu/uHBlpYWqqmpofr6empubpZr+GZ/3M+GZH/82GN1FE24a6Gz+7j+WSGHaPUlQ4EGKOpVfx3Zwk6d9erSKAXdkRBDhmExcEtKSqiyspKGDBlCFRUV4lk1NDRQbW0tHTp0yLZtYG+0iJA/MDXsrV+4yMMokCHJM40xPHntFcQS5dRDkXPqOsSqD0hCN5nYYmeUu8BOxoXzGdxFucSzsEG46bBrUVGR2HPo0KE0bNgwKisrk1/TgU1h28OHD1Nrayt1d3U7FpATrzFyCfSzYBuITcUZUDaNXM5cjYUAxgLGbXFxMVVVVdHw4cOVp4xC6IzwrsrLy6WzoQNoQs4WUsZAFSJB/0gy6aLB3StRYUpKIoNY1xA6mCEpFV3UwFD20zNtYWEhlZaWiqFhU9gP9sQ1/CQWruEYaldNhNAV9/DygpBV2y3kuRMqrz5+qwOTcKooKQ1i/+W2gmCsXzePnVf9WrhavIzfjniyYt/ntnMVsG1hYRETcalMurAxBjMSbItxi4TBLbblxdvUepaIc/yJJk9NZm4mWocwc2ohoMYCbFsoNoT97PAFDIwb8KxwhOesB2bo4O1PRHt6rE++oY+kmLSIZIcVj2HXgxiqgvQ0KSdLdsFDA5TMQw9kYnl5ONe2xGAFAaNOeM+wI651dnY6JlxFwEo/jYilLC5KShYhXd555DosfaFrrKTxEuBSmrpi1eK81yf2jKcXSijd+Pfh0u4pS22iF2wJ+8GWGLx4Dw8aYxakjUkX49aecMWcsTF2tj65c5Cy2lUTx5zJiR/gpdDX8NK2xdOPvdD3mQu/nRPND3hP3qiraCh5jzCft8a5GcTQFqTY2+MgviSagNIYZlpviED9zi1wt95zkx1/vOGS7yFLUAKh6IlWH5HBeZ7spBFUUYQ3+pFX6xwhi31J6yl64U3aiVl5fSA4N0lPsOknZm47G/3mO78qDhOcJgziL17+g4hqAq/AJ0XTT8pqklW7fSIqZC7GRQC2hU1hW5uU45bKkgwYzE7ySEYt5/BWXTb5jgtd3JMya4uqoECSSWvqFKPq13dIvGBFegFy0QSHap34Oc/TRcRJNhVjnXVNtnSS5RKoz4u+6FpLWy/lBMTtc84O4roS9xnVM5rKL1WJoaCbexkmZwABOAKwKV45SMpWQ9Lc6QJwxTmzB0ucfLitmJFPUu+5ulptSOdgwKIeHm+Li0s4dKFyOsnXeZ5pIkZ9un7AEY9ccF/nd4FwillUXagvnl6qotTt6E5h1dmbmpo4fNHJNi11VSyAnTd6BhGxo8OhHrx1XHKln8kUQEDZtkj6es6RMpohXVSzUqBdrs90F4UIfe66cEhGxbPuBrHq1KnWqBUIAKBISw0M6FNTUysr84MGBXbOOIkt00SsNQ49KlIOvRr8Xg12JktcRoGULRYsP9I7t6Qc0I31ykBsGTujEDfGAnysEIueUJw2j9RON9diETHKawzcyDJ5oiOA3TOwLWwmpOyF8aJX580d6IgxKbp6NDiTo8dQYlB66YEQrbXqV0VYf/7nBSkqGdAloI+Ot8PAiHdiEUjb1os6o7UtkevQNusTKwnc4tkU7UAejXG621XLk215RTkTsk8W/OLWhw6eBOCGiOMi63mGuro6WaC1Y8qZ6lSJtkT0sgYI76a2iysyxfvkaNUWlNBJoP6wYpaOsQax7uheaazIXWkCnLQNccReVfGouns8mQDC2pvkhYDFAkQGs8bCDVVlkvjQp4AhPqnmrnt5ZdF4oObJ5wh8fh/vsFC7Z+KVCMYutp66f+oyWra2DY7wik1KDwL4jAh21mDnTNaGLzAw9PY33Re0t+ckpPRAFEuq1kbnsQZxrBEMNgJx80G3QZdO5ugcQMoTguSA/F7eNoiXJupk6khHmVDk3NahH5GllWDxWFi7FRonn+pj8TUO6MZ6pTmEgbAFXhi4eBKKlTSZxuoDzn6k80OmPg8cY9Vk7nmBgLatPOF6ITA9MjAzK8JTlBOoxQtiC0hze6YHaGRSEO8qiiuhO39sCW71iETsSictX2/VijUg3deWhpysaL5gpWychhpSFwmOhcccxabOCnQ/dV5LxznsKhOu/FJN6KiIUiM6hSOr7ovI7WybaibsoeQ476kr5m86EUBf06+s9ZTROaRjQNl0opGwbKvXhpZLZBCHlk35fRSdUpbrnQAZ7NaIh12tU9cVIL84ya5LpJIxyRAGvmIzrd5y4nYG1lBJT9ChZOu0Rei9VBA0ZZNHIGtJGU2SgYijtC/xDinFMvIn3iDm+1k2tWQCFiFe+aMmWOs0qao1ecgELeyc/v4gnrKLUAnaBf008SXVwAQLuanLqZOTcDWWqNJ5PUEVTPY0IZDdpIwIbIY7eyo4g3hZ4wgilK+Pv6Bn/B2oSYhX/gQGvPU255oM4hNidtEAd/3UC9tz37H0wtzkQjUrT+DpxBBxdnfFrCZlQOeus/cPyGFDjC+4HcRhZfunCZ7UahMDn+gBb1/zpAYlJLN9ARMnDMoHV3OolSlqCAOCvEzuJgxgpm3iZe1GVvoQcEfKVsd0eg7OWVqdq04cSkpqILmb0aM1MzAYXY2OaGI8vx6qDbbt4WfUwwkJ16wB7m6Ee66r1wLtNjoGvX3N68oseZAvfQHv0ekygKX0Zxf12LqJXpnRLYEZw0LQHHIBgaikLH0LLbBOFCGrYdDLX9IuZ5pnJJs1c+OcCQjFMIACA9V5zpncJAxC/oe6syHpoaaPSiduq0M5pWsoXVs5cFnaglbl3pCybSl2VW20rzkwSPTUiZkX8hKtP1Z+1e+92IUR2idi1Rr5Hnqa+of7LI+7FfTDODNp4CAQRsrgDDVILINbbdXXFB2rTqDJSB3xF9chQJ2BgOQehGIg49u3kug/AU+5f4FXrUOLrHaq1oYpFTpQRH98B4WAEYgqJwFFWF3pvmCPd9jPemNfS6FyYIRugaTwQheJj0hwX9C2UHK8/2vZ2XU1CiPp9VbbUtXJGkEiBm2P9Eq1DlM+uxAQUsbgiPbFNYH+qAZMpGGj7yCv7ovcfVRL5YLydmX/LF9V34iUGBCBwRhJg4CWiUlNNLdunRoq0ES0sQYLpKlBEyxXk0/w1ex9Z3NjULtS11cRscIQ5xZ6qtMwkHa9MapCHukLyJMhYGXS0P05jm5eqBRKxLpKTcjqu7N5hPF3aJs08BDwq4HC/i/3Jhkujl5lE6vLdqsuAk/QGnhcLtBtQMzqQh8+jSRfVedCMAYh/1ODGPkdg9mqx4UUT7KoVilRAfJl7Rxs4jh11AlEuDTAYBASxdUhKG2ntt58ottjX0uhVtW/FHIBGwIH1TPEmlYnwX1dd6wqkSdIVqzMHtxDv023bnrMQF0nBvoctrDJ2AvDeICLEZEeBPzwkPUX2agqrBGSQn2adCJK4h7eh0HFxJyIxxw8ENUgd1J+Cuq6LhoYIJq4hFJ4EMUWocopItHYxC6Rmbu23tYJ9LSvpaCCJkwc9bmIi/DBCoEOrCcVxwEyok7KBhFveXLR0sl1NapvCMlGaK9TJTdErPucs5w5H9gIiKesiCKZAZEMOFwPBiGSPRjV23h/0UEDgzxT+mqt1KiEt4LJQJGXex2CddcyM3V0MAqrLFpb7NsfRBxotdUPBFGLlwM3o55BdcETOXRfiprbmxvSVV2Igm59QsaBtjmLGSJ2omHOIyHgByE7O0qkTN5fAy1wrdzTsZFDEV2MWjAIoac9AFE+00lGm3BAXH1DVNNqg0hEgKLFkFxevwUpwLIIl1iElxVE7Gyn6nuCi6Wb826scyFlDWysjB7dw4+k9vWpX4eIJ1LpFsgFG+gkbbXe6HM0XZ/rfOZ45CIQtvsiU1AIZfCgkmHZy53dxaKF6uyBDp4pXYPq4eoxOSQyiDTfZJBDRGXoqL8MHedaj6D2JPhGT4wyoTobFOdRPVo1gckWdsX0kUxKpWwC9SVQjfRVTIlcxtlX9Lm2hX6fgBYm6wBHoN9IGYMRnhySeHMY1HHGJDowXooY4mQWydn4J/16i2cGOOUXrr2rD7irXTrKbgEH0IM6EiA8WBWkJn0Bb5yTA94nnax22eWD24X2q35rZ4h4At1UCEPriWzouyq7IeKIsJmLFgJpJGVnBw/u3AH0cV3lq6gso0UnzKHxU8aQj3dmVO85SO+9sZZqD9Sr7IGsVvEIozgsT6CmVM5KyopZt9k0Zdo48hX46VBNPa18az3t3XXQFos8xy2dTxNY/67OLlr97gZav2qbNYHobKyz6Ig/6Uo6XOHuUTspLZymjTOT4kvZ5y6aRjPnTqHS8hJqqm+mD1Zspk1rd9jY4Gs8kyGqwASdVCtk0jpq3hSac/R0Kuf+19LUQutXb6W172+xv68YE9uco6fR3IXTqai4gHZu30/vvrqG2lo7YlaqCHhgE/H4SSNp4fGzaciIIdTd2UlbN+2iFW+sp472zpjYZOLmqLFD6ZgT5tGwUUP56057aNfWvfTu62vZxq129aPHD6PFJ86nwcOqqL72ML31ymo6sLfWvt9fJ2kkZd2kOATEHvL842bStV+4mIaOqNKF5HjOJUvp69feHHQtfCAGGEIGNlcnjlPgclB555sxE0bQ9d+4knZtq6Y//foh6uFf6lBJF86j8ZNG0ec4z5gJI+17qOf8y0+lB//8DD3/xJuECeWGb36UZsydxMZt5J9h8tGSUxfS/37nTtq9vVrKoQz+KS/fEpXOg2feY6iSKkKqrKr+Aq1IVoY9P/nlS2nW/ClBpHs22/XRv/2LHn/gJSmXMiZgQGmv0sJf4KNPfeUyttkI+t1P76XqCAOtuLSIrrn+QlpyygLK9+lf/e6jsy46id57/QP6820PU3trJ1145em07MpThYRbmbRPOudYKikpomf/+VooMEHvxd6RQAnKlZtv/OyYXPTRMxirE6mgMEAhp9OHaO2KLfSL796VtoaddNYx9JFrzqKH/vIMvf78ioj1nHLOYrr8k+cRHCVnOufik+j3t9xPO5mgZ/JYveFbV1NJaTHVHTxEVUPn0fQ5k2XMOsv0x3kAUc9rj9Qjw4fvuIkj6JobLqSKqjJ6+am3afmTb1BjQwtNnDqGlp51rK0VPC58+IT4v/xUD9/BYMKXfkvigYnOAhL1FeTTvp01QbMiDIR7IICdW/exN9tN5eWlNGRoFTU3tlEp32/mWVR+S8+qtaikkK78zDIaNW44vcPe0UN/eZZ/+aGbTj33ODrnkpPpw1ecRpvXbqehIwfTtKMm0Jr3NtFvbr5H6gARHT7UZEnSKqablBVhojacpUx2QdrrN7CrnrTUtUiWLiwqoKsYu6MWTKWt63fRP+9bzt7KPhoyrFKeKDCRQY6EWHzcDR2TCEi1u0tPkKqOEaOH8KQ9WJ6c8PSEtoGLfT4fjZ04nCoqSvnJpUYwLywqpMFDK9kDqqTyQWXkP3iY5XUrQdbf089bIoRcvb+W7v3dY7R7R7VMHhjMx3xoLm1Zt5Pefe0DOvbkedR4uJlu/d4faffOAzRp2lg7DBEk8Ah6s5SJ8WwmuNbmNrr/rudp5dvr2A5+mr2QnygWTRckVOgs3+HoEI/PcLuW8dPT+CmjRNa+3TVBdsekPnLMUGqsb6K9fA9OTdXgQWzbQXIsKi4M88qnzBhPH/nYWdKv7r/zSXr9hRU0jPvNRz52pjwRXfzxM+nW7/+ZnaZF/HuHpXTP7Y/RC0++RYOqymnitDFZYcU0krK79h1/8kIaOrxKHgn/xgB1W97qmnc3EV5IE6eOpa//4DratmkP3fbjv8q1L9x0Dc9sk+iX3/8Tbd+8l0aPG0qf+NKlfG2ixD3bmtroH+zJvvT02zRn4RS6jj2nIfyYgrR+1VZ65K/P0Ze/83Eq4U4BAr31r9+mf9z1FD398CuSB38mcb2Tpo+jg/tqufM9yWGLBrn32N9foCmzJkgnnD53spA/FtSqBlfQICabQ7UN/Ai82ZZjnzCJwINSZBmJyuycSZ5AZoAwvSRlcKbiTRUeiafgZMbtqAXTmEQP0V2/fMD2Vpt4wt3B5IwE4v7Kdz9BY/kp5Bffu5P2ManCE/rEly6WCfCpB1+WPJfwIDtt2RKZdPGzOW+9tIoH0+NUWFhAn/7a5TRz3mTxuJsaWum3P7mHLrn2bJ4kJ0odN/3setqwehv98gd/ps6OLrmGMArCUZjk0Q/WcX9AeueVNTxJV9LlnzqP5h07k8lmA9fh57BFIQ0dNZj2cLgKE3oi++tF8AD6AxI98YxF0hke/PPT9Oq/3rdbh7GGF+z65e9cS2PGj6Cff+cPEe2KQouXzqOPfubDVDmkQmTs3rGf7vq/f9CeHQfpwqtOo3MvPUU8cdjpoT8/K+cXXXOm5L30unPYMTqJ/u97f6IdW/bKNfw5+vijhGChF55mMAbQ5x6++znhEXAJUmlZkRD3yDHDZLLAxKv5RjL0459+JWXMnBN4durp7pX4cSd7r/MXz2CCHS6QwJt9kb1nbEHLy8snP3tF8I4wAvHY5GdPGZ5SQaGPLrr6TJnpMDvC67ny0+fTsitOoc3rdtCpy06gkuIi+t3P7qXmhiYaPno47dtTQ0/w4/OHrzyNH1/qafnjb9LGNdssUyhyGzaqiorZW964r07CEtpOGNx7OCwBz2DE6KH0Aj+y1TD5TGQv6jv/90V6+Zl3WB57/GxoZ8JMjy9rcvCm87Yn59A8HQmdW73UxCJ1CEtHrnEsxxtLOESA2DrCByPHDqN57EXBg8LXgGzbuJv27qyW97iGdQQkHEF6CAEhHXviXCHk9zgeuJxDRaeeu5iOO3mBiknzYJ01fzI989Cr8iQziftSfV0jPfnAy3T5dWfzI2kVPcuT7NYNO+TJSATyH3jpVext4clo744D+rIc9+7cTx0dnfLkVn+ogbawl49Q1Oe/dQ0/CW2kp3micJJAUOEj4M3goRXyxIKnwPU82WHCWnzSXDtUAPxBbvk+7u0x7Ir+cOm153BYqI3++OsHafioIfL+givPoEfueY4n52M59LeP7r39CY4LD6YW9soR90VIajGv3bz10kpa9c4GOsAOk06obzQ/eaOfbl63XY76Xl3NYSk/cqziFpRdcNxRdOaFJ0go45l/ch965YMgz16XTeeRh4L2dqQaOG0ZJmVFdsKqrAJCEgXs7SCW297WKV7kyWcdR8ecOEcUhFcEUg5NofG6qiGDaOqsieKV7d/Lj0BM8ojlLloyhwl4sCy8FXDnmc/ez7OPvMad6R0RCQ/q3EtPpob6Fnpt+fthj7jocKgLCxcwtDO1t6mFHkwUWBz4/c/+TlewhzWDvXcQ/dFLjqLf/vQe2r870GkwmSD0gtBCehNXxFUgFIMX2iCuZEqVQudQvWHPyKm0RMXz2ngwIU2ZOU5CQSBcSMGg+vNtj4huop/kCv+zYPEs+QHdLet38iScJ57qsSfO4zDCONr4gZpE8aSzecMOeuW5d9mGvRzCaGSbnsjkW04reEF2Ny/OOVOBX03mnUy+XVZYQ9uknRdpscPExxM+nIV773iCWlvaJJS2+KR5/Hg+g+75/aNR45nOegbiOcYRHKGO9mbBbtDgcnaIzqIhwyuluTXVh1x5nJhA8YT8xosrqZPHFxyjw3UNhMU3PziBw5LDeZEOT0EYm9rB2blln5DyDn46fuul1UEQw2YFHMKEZw3bOhPkwda6r6FenF/IsfEJ7D1/+quX01Hzp9Mf+aku3UlGkTg5kWvKMCkHK9HV0c0zZbt4vTAQiO83/Pjp40Hz2a9fLrsxgktEflfGsWE8MiHW9HkO3iPBCJDd1d5NT97/Ag0bPlg8HnhZyx97ncMRT0UW5rja2tIuOkE+JpDAQmAeP3INkns6bozFg5//153sPU+lj352Gcc5R/FAXhxeD/iRZ3Qh+ST39jpUjHCqiFLTp9QjnBydQCMIkUt6HsJH4vFd0ZAgUrTwaAX5emNji7QR8XZg98bzK+mtF1fzgJrLIYcrLElqwsCcESnBpmUc98MRE57ajocvz+rlRbh2Ws3ezsvPvkcnnr6QvnjTx2gL7+i44xf/kMfVSPL0tQ7udxigBSy3uKSAJwlr4uIMg5jIi/h6W0unPKG1MSHfx8SMJ5/L2LPDDqEzLvjQEUvKwL2rq0ti9eUVJRKa+OZnfiZx2//40ac1xHGPiA1jTeh4XmjF05BOe3gCPcRrAP+851906SfOocuuO5fO/shJ9Of/9zCtfHO9zhbxiEm0s71LJo3yCqxZBFIxTyYIveDpGwnOCsge6wann7+En6pPZT3mpI2U4xFxQFOOvTvfZPocg2vzBzvEgz3pzEXi1TRgcaybh4lmBFYKi2v4RBXCFHisxWxYbHli0BmPQFjIATEixoRHHfv7PCwCufnG38sixNWf/TAtPfNYIUvIRAIphH9KL49q9h2idh6UE6aMpnETR4qXhvyj+NELq7cd7N1v2bBLYlLoENAZq88vP/OueIWVHGMOTZidA02DclEYKbRggu8RKoFs8QC5Gl1vNALU4rVuaIttA31RZxJfN5befbIFqbmxlabzEwy2xK16e6OQaQ88d5GjDNPHkydsWlhUJFedmGEAYWJt5+1nv/7x3Rxe2m5roE/++ptH6LlHXqZLPn4uHf2h2bJ499yjr+vb3G5Vj74APJoam8UzQ9x5ztEzZIEQ+GChGNsaMQns3LpHSAOePSbjmv2H6Il/vMCeG2/tKyvR4o6446GaRiHioxZMoZPhdPzxabErxrJO6De9PX1R7Yp8Tdak/ezDr9KDvJMiNGFnBZ5yNGGezTs9QMq6T8JeoQn3dm3bJxMnQhMgXb09DwvOw0YO4ZCZClfB1uAM3F/+xBs0m7dFYveUl0l6HsYRhAZ3w5jV9AMpA0xoqEB9kx9jEfDHgtq3/uczsriC2Q7vdWpp5oHJBIjHjMs+eT6DW8XhivEyWJEH3uoejk/OmjeVzuNwxCqOY2LVfeToYeLRnHfxUl69PUi11bVC2MW8DQYJMrGneCwT7gW89emD9zfxI/F2uYc/WHhYxyGOY06YS1+46Wp677W18lgEfRFLfp/3UW/dsJMu5i06eMxat5L3tzLJLDntaFmwxJ7XSEn3pzCui5Q51WvsjcPLxbYVHNCZMQGpcyVcdXTLe+dLuuPjrvNc20yVivWXwwzb9rN3vILOvOgE+uy/X0Ur3lxLB/bU0nTu+HhSwD/E5hsbmiUeeeHVZ7B9DjF2C23BqHsT725ZcNwsOv8ya9GH8Z3MoQvEM8dMGM7rDyNozfsbOZbcILoiHgwyb2/vELlnXngSy9jGq/ArhVzRftj9rZdX0VQmZazUY9X94N46msa6zZHFyXp6ffl73J+m0MduuIAXCrfL4i3el7F3GFh7sFU9Yk5AYs89+iqHj8bwE8MJNG7yaN6BtIMq2AFBrB5hBuDfeLgpql0B1h4eW428Z/34UxfQfv5MAtZkYEs8lW3fvIfO+PCJHDNex2GoRibPHglLoVxzM++Q4n5xLMexMWHCjlhY1wn9bClvicMTKxYbYatB/FS75OT5kuXlZ98RPb9w4zW866pFHK0h/JQOPjnM8XAvEvTDiEuEiJ31WqQMESKGj+EzkLOA1+cg1N/97D5+TDlHAu/nMIFi4MCL3csLdkjY9fAKL55d8NHT6bTzjhOyfG35ClqweKbM0hjc2DN87Rc/IjHi83gAAxgs8mFwwfP5GG+7w+MSOtUzD6kdFrUcx/rgvc10Invp5112Mj/2NgeRMuTed8fjLIt4k/xRvNq7VPTB9VfYG37w7mdE3gaObWLxYRlvkUPCBwue5kXEN19cJe/D/zAlgZnzlHcdijlMqjzd8JKJXtGy0AZgguRwaqxrCm8tW+fD+2T1wOPhw397TiZBPO6fcPoiLV7CC1iIQU97idcMZvIOFmylwhar19m7OZZjt3pLHFbRR48bySv+R0s8F0KQbwc/FXWwHU49/3ixOcJVmFTxwQ7o/9bLK2WiPIHLYWvcmxx/7GW8BXeW8frz7/M2ujI659KlLPsYiJW+tG3jLrr/zqd5kj9IQ9hLr2PP8GQe5Hr75Qe8q+YB7mtHclr9zkYOE91PF/OEBmcEXigSyHgrPzkC/xeffJvXV6LbFZ8NeOivz8riHnbQIGEN6V/8lLOBn4gmzxzLuKstsXUcznj6oZckzyZ2mvbtOsBrFBMk5vzBik1BpAy7/elXD9IVvNAP3bDegFTPxA2PHE+xcAow2WOfNcJRSFgwxA6rZBNGlowbNcSSFSPl8hhInpx66bMXfZsvYJhkIkHz8LpKy4tlTzBiygj641HJmbBiXllVwY+bB+TRw3kP5wAbsWnEezELYtUfniuIBSu4lRwvPMgzMmZonVAGuz2KeG8rPGNNBvq+nqywaDSSvWN4nZALYsA9DHLIwOPQ6HHDOLRSQNVs4DaOR8dK4Ed4BQECDOChiTRW+Vj3zr/uGBo+fDiNGDmCfvYff5b2I7+Sa5WUic8KJeiqoZPcTpaKLdkhB+yyGcWr3novOAYASFSHjLBLA14SJklsX4qU4IXBhj38yFnNXi0mRiTEnEfzp7eaeK959b4asTewhV3QX7C3uWZ/nciVeRB/HAkTNj79VVzMHyLg1X0QQGgaxnFx9Dt449hdELBZaM70vj/tytk0aNAgGjlyJI0YMYJ+9OU70lthHOnAGHuJsY0QMfrQfo+dS/HsCvyxB72Iw1fwlvWCHvrMmPHD2Y4+8aS1vaESFuCxjbKFQ4vRPoEH3YZzf0HsupXDm/v5KS2wJqQahq2RI9n2Hbxof4BDlaH34zRfxopXRHzutQtpyJAhNGbMGHKQ8n/F08Hj+xj+wQNEKIHBFKKTY2pVYnBKrEsxTZLCdOFQXSFOkTKagUepRBMMGtCPvVWHAPUuUp2OTFFONSlj8P70P/4UQspKJggaSd7hTxoWHVGDswVB7/kGSBm29ioBT/Xiei25OOhzr+rpLznZRsr9hUN/1os+7BURO9vhJOUEYspqEKuBpQZSqh6dU6nw86AhHH7bxRV7vENdpb6LUolkwWO/RcyJFLPygizyef81cBQ5fD3Q6tTJKtQ+Tv/XeZ4ebIIJWcMj7ePFN0xiXpOllqftrt/rus3RIJAMAuiz6SDiaLpEIGUMZWtAoXfD3eSk/sqpvAu812epk4jUCm9HqoEXpetL/oiBKYAmLQJKQCO8oijEt5ImZ91IwTmK/KR1VwVjaJ6i5ESLqwksHYSsNTFErJEwx1QQkBGPMYmTDCcHKVu1M0loarA7uHUNxKMJTlMV9EVJXca9/lpC9JLARHOWe7nBOVMn5WB50d4lTcosEG3ET2QByOhoRKs5+nVtydRlWn1DtEvO2sprj66ruWMQ6G8E0LOF33R37yeFhJS1bwodFAkqL1WRsiILjEeQJFbuncQc0Du5wRooH36WCtFpaTapg5nSAnaqIQxoqvAWOwBkfu89mqgnkRQJrOS00v0L/QmLovZkn4g6Jq9BIA0ISC8XZzMNwpMUKaSM77MFG0ddeAGhcZJBJeSsBqweotZtJhKs5ut3qkzif6UCRUo2oyYuxVkCeuuJxHnd/TnahNbqFkcoybdSmUR0U4WTWXyqKEbQ0MUltC9WSk4rlIINsK3MJINAfyMgvTzLiNiJiR+jXwaMLLw4b0U+V9uYeHFKGqUHsRqsiQ9ZlICM6CVBUpqwImsU/2rqpBy/DiF90TV6W2JJgY5I9iYIgTY2NrHkpX5PtyNFHVgMJmp4yKlMWqm3x0g4khFQw4ndRjnJbiR4zUUNvkSID3k1icQiVC+aLmSXoiBbX80zKcmLZFVPBFuTo5KFp45INUH16HdSaRhqQ936pWWl2DYRK7Ts6DNatjkaBNKHALoe+EO+coE/zJQLhAw0OHLBAyYRRhYMAwM1PQTB8hlBLwhZ1OU/CTdRF7SPgTbbl0JPuBekqjNsIWEklq10RtcKTqA475PHMnnbG/SHhywTv8fivW+/kTgQEMhVInZi79h94bwc+1yRhSLzVElIeWaAMvqoxQyn6oytV+y7kB9OcLHLJHZXsBBdo7fFjUQQM74esdf6wiTIVQiFy8Wd9JC0G00j54FOWKfAHuwYZo1c2Fw1CCSIgIxqceISLJil2ZMiZd0WkEfqpKylRT5q+Yl788HyQOqiL+hNrBh8P7F3iiKDy3hM+tAXjMb/hZuFmAOKO4lYUbaVP1iptL8LQgIQcLJ/CNV6r66avwYBbxHQzkrq49lbvVKVlhIpo3JNzE6SSE6poOENyYgFoILkxEUoBVEQmXyCLnEE8G10llQnEeioZSDsj+/c0DUrRALvJS/w6pek9NCTHuym1yn6RR1T6YBGYKASsdNoSZOy4kqvPOX4ZOcFPyuS09TmhMG7c/HsuQpNqF5IlrgsPo5tEb6eWTQNp7dF4S1wTge6nYqU8dHp8PzmikEgFQTQv/W4SkVOrpRNmpR1AzEoBTB9IQ1HLV8TQCpViL7wOVNmMggIZaDA5AKdvdBXtxWyQHjy4R25GNwGEGXqTyu6tkhHBZi02sG82iv2sq2RajfXjiwE0M+OJCJ2WjdlUoYwITqQUBhJOatycy5D3pGRWcgLF9kp0RLpuJTgaYB4oxYMbUbUjInfUCTIX1wPdtbwMEao0uvklKpJF623z62Jwut6jbwjE4EjmYidFk+JlJXD5JWnHJ/svOBnRSjpoDANq4UHV6HJS9/x8ohf91ZJUSfQE/cfnz6Rn0BSbXTnQSOvkoCywBnJqb8+106yfq9ymr8GgeQQQFc7Uj3iaIilRMpaKAaoDjHoa54eHZ6gF2Qg+qYthBFoudchjIBkEKZ+p8IaeAeixkZ5HBGHBs8KXjbLcib9kUG7vIOQRUZAnpKJ97Cvs07cMckgkBwChohj4+bX4zV2tth3MWjVwE1TCMPxcO4FOYDQUms3GA1dK0YK5roYGVO7pcjZZljZ+YAfIsXXY+In13GUXzjhalRenKBOTb7wuIOVtW4jk53ssvYVc5JpBGBL/ZLJNtMKpFCfIeLY4MGumkfz+Gd5GK8+6uzs5J+Fb6Tq6mqqqamRc1zD72bF84JBcIhximeoH4Nj6xDjbjBBqIx8jVnBVjrAQTHkxL6FnyOKx6uxJUBPpGjK8AQln2bTYQaVO51/gY/f76eysjL5aRn8JFRlZaV8EKWhoZFqa2uorq6Of3ySf9ySfyZe4tLpVMjI9gwBfJgIPzVWXl4uP/U1bNgwOe/u7hab1tbWUn19PbW1tbkas54pZgSlhADGLGyLnyOrqqqSn/qywxd6QOMm4Jq1/QAAIzJJREFUDI/3euC6IWXkwSBn6kxJyVCvTQmzCNAiZr3in0pF8nl4zCaaWxMW5iwYqc0IIzAaTMw4ZiqBlGHD0tJSKiwslIGMWRi/QYhrmGiRB7aNZ9dM6WzqiY8AbKgnXNgXtsV72FDbGw4UfusOR5NyAwFwA2wLe4J3YUsOXyjyAFvjRkVFhbQGAxizMO7HG7zgNqRc8pbRJhBz8qSMFmtijkS6/UPK2o7wlmFDeFcwfElJiQxW3O/o6DDeFMyXQwkDV02uRTJ4Qb4gZdgWtsbYwzXtSPVX0zLpgPRXG72sF3jhhXGKMQpbBnnKuCEX2dggZE2ybpQAMev8afOWrQaohrjRKnaegRjCwMAF8cKWeuACBZzro9vJVgqYP1mBgB68IGI4T3jBzrA3Es4xdt2EG71uEHQzKXkEgF/QmGU32I7XjvvP15KWDJ8RHwVmZuazVI0EaaEycA2q8k4ANMKDjtDD+ubxC2onn3ThUH2VRKipB1TydZiSBoH+RwAjG0kf1Tvz1wsEdn1/sRAzJl0JX4CV4oUo4lUMSsIX0YAwlazIJBVPjrqPsqHErK+pHKF33ckNzqX3HQRfTeZdKm1Npj5TxiCQGQQ0AaOH6/PM1Hxk1dLe3i5Pt2i1Hb5IlZRzEULxulNzk7nZsQkZ4nnK88Szz0WMjc65iQAI2BBx5myHXVFY5MNin5Ay9rEiHuxFUr/KrB/pvZDolKG8cN1ZvAhhQF+WmkQIQ7cxNimDkqUGZmdMAiYZBLIVAU3EZu9G5i108OBB2WQBjvALtTBhyAIB65IKbaBsekMYwWBB91T0hTTR17W3rIk4WA/zziCQqwgYIs4Oyx0+fFicNuyYUp4yk9KRGL6AOUDqsak21l13UwKwhRQvPHvobJJBIBUEDBGngl56ymKbqt6qGogpexS+gMoDI4QRjYzdEXGo6YT8mZxNCCMUGfM+EwgYIs4EysnXobcTw4FTnjLLwhtsaZOf8kletnieuRvC8IqIA3I0CeMKcDHJIJApBAwRZwrp1OuRp2nmXyHl1D/oEVmh9HrLketM9qp4sWGFEyVQ0K4q4yRifW4IOQxgcyENCBgiTgOoGRZphy9QLz5Iwc/XGVYhmerStQsDTwyJ6BPIrMlXqNnC0BBxIliavMkiACJG0kf1zvzNVQSElLWnqF1okEkq1IyykAFvGTK1B5kcSFq76BqlWgP0En1dMXJkIsZVyMDLJINAuhHQBKyP6a7PyM8cApanHCASL73l3A9haEM4iRjXsLNZ7dowRKwxMsd0I6AJWB/TXZ+R3z8IBIUv+keFZGtNVwhDf5AkQMTQEOEJQ8TJ2sqUSxYBTcD6mKwcUy53ELBJWQcsci+EwVSJ/0yaAX8/OQMEQhiKkDURQxrOTWgiOVxNqcQQ0ASsj4mVNrlzHQGblJ0NyckQhgeLlCB1GQhWXNgQsbNXmPN0IqAJWB/TWZeRnd0IRCTl9KgM7zMVXzZSWSuEwb/AjN888XmguM/6floPRBkRBoGYCGgCtp2BmLnNzSMFgZAfkFPEhxAGPkiiHuKThwLS8MgPjzPtyQN9066jqcAgwAiAjDG2cMTLfAEQg2CSjUAIKdvX1Z7lwNuUzmQXRkoS3BWWL9l3l9XkMghkFAFNxN1cqyHijEKfc5VFJWXdklS9ZS1HHb2VpmQihKE3qQXXZt4ZBPoTAUPE/Yl+7tYdgZSDQxipNs2EMFJF0JTPJQQMEeeStbJT1wikHFBUdmEE3qZ0lr4QhvK+8VXySCaEkZKZTOEkEDBEnARopkhUBGKSsi7lSdABMQZJ+qiluzk6ywTOsX4oi4h84mNSxqKi+c5iN3h6m2fe5EF06eJRNKxK/WI2pJeW+umCRSNoyczB3lbmgbSCgnz66eUz6bEvHU1TR5cnJdEQcVKwmUIuEIhCytkYwgAZq+8jls0cFiGDlGUbW36Gdnm4APVIy/L5E8bSbZfPouMmVthNnzGqjH5x8Qy68YxJ9rVsOfFxX5lQVUxThpZQaWGUIRBBWUPEEUAxlzxHIO4+ZU8/SBJXfe0FY1LAuZoc9JY6uSKMrLbaxRVnMmQNAn5/HvX2YKtlQCVc6+JrvM2c8n151MM3i9mLPWpcBbV09NLWfU1B+ZFn1thyKvTn05bqFmpuxV4GlXT54ZVFNHZwEa3b08TyOJzF8nViLkbHofaOHrrmD6vkXN8vLfbRjDHl8gVaG/Y2U0cnKFjtlIDMKSNKqba5i3YcaBE95Sb/KWB50Huo1FtMa3c1UpezkTqjORoEXCIQl5Qhx4svv9f6gGDjf3Nc4Bc6MKTwQmjCfMxZo5hbx+ljK+iRz86nbbVtdNWdq6mlrZvOnj+U7rp6Lt3+xl7629vV9Ojn5tMb2w/TjJEVNGtkqRDdHXzvB49toe7uPho3vJS98Zn0ocmVErI63NZF331iK9335n4JQUj5HQ20aPwgKmPvd8ehdprMnvCld62mNdsbJbTyz88tpI7uXrr8zlX0y8tm0dHjK+jSP6ymSg61/O6KWTSWvWeklzYfokt/v0rI/ytnT6KvLh1PxYXqo0mbalrpi/dvoHe3HaZpo8rpiRsW0Btc7zHjK7nePLrg9tW0dndjbhnIaJtVCMR4dlNeqiLQ1HUGGedH/LScpl3l0YhXDOLmKnGO0ARecj11NYyENCEAL/SGk8bT7z42W17/eeYkDg0oIttd20ob2cOcw/HbOePZG+W8Zx81TDR5bWs925ZtzQI+PHcE7ahrpZ8s306HWrvommNG0cJJleJF33T2RFrA5H7jo1vowjtW0v7GTvoGh0bGjyizy18wdzitZw/65md30OvbG6iqpIBOm65i2vPHldPEIcW0cl8jNbLsQva62eEmP7sln/3QGCor8tG1d6+hc3+3gu5fWSN7iZctGEFfP2UCvbGzgc7+zQr63pNbaSIT9w+XTRHdWQT36Ty6kOtdV91MP35mB+0/3J4mhI3YIwUBV56ypyEMjEBZ9FMkDKA14WoiNh5x7nU/2HDJ5KqIiiNc8OiaGjqB7y+bM5y2Hmil4yZU0ba6dlq5u4kGlxVKuVV7m+gL962XsERVcQHdcOI4ms8hhd2HOuj4SVW0s76dttS2UCd7u2s470fmj6DJw4po3+FOKb/xYBt95YGNVHu4gxZOqaSPLx5Np04dTL8v3E1nzhoq5P3MujrV/SxN+zhKAe+5vMhP5xw1nG57aTfdu2UfwVtZNnco9XIo4taXdtE7PHms4zqXzRlGU4eVWqXVAfV+mb3nAw0dQdfNG4NAMgi4ImUI9iSEATLmlyZhrTD7wdTHHgcGgkm5iQDiqp+9dx09ubpGGrCIwwz3fmKu3ZgXNh9m77aDTmGSXMWP95PZa/3r+9VU19Bpk3JbVy91MUEi7WYCRqoq89NgDi+UcKx5LMdt7/74PLmOPw0cwmi38uP9oZZOamIvGGnTvmbxzmfxguOCSYNoyYRK2sEy39vVJPfxB/2QeyPdsnw3e9GldDV75lcuGkm3vbqHbnlqGw0pLaTWrh6qb1ax687OHjrMoZdiuNiOVMf1wvs2ySDgBQJxSJm9Wu624tjiNMWEQYDuDILHFjYQsRarjylWYYr3IwL4RV69cNYdsti1q6aFQwqH6aJ5I+grp00ULZ9Zqwhcq4ydEIUc8mhncp4+okQuH2DSbmjvFu94FS/eXcILdK2OBT5kmsbedGhqbe+h5zYdopsmTKLr2GNGfPmhNQfoIHvRfo47OPfNb+HQw/m/fo9OZG/61ktmcP5R9CMOkzRyvcUFPhpcroZJMYc4MEG0MVGbZBBIFwLBU36MWrBC7kUCMdtb2LwQaGTkBAIIEzy8+qDoetTIMg5DtEnowqk8YsZ3XD2bfviR6XTJ/JFUyx7o+xzeOMQe9tr9LTSXyffLp02Q0MSZ84bSF86YQOVMktHS8xsPCbFeunCULNo9ubZOYsXO/NjJ8aOPzKCrloyhbt6pcailizChwF9/YXM9x57z6ascV17KhP0FrnvBmAp6a6dZyHNiaM69RSB6jw6rR21nQrzXeLVh4BzRF1o5hABCa3dsP+vi/Wid/GrlR36d3uFdEFgQWzhuEL26vZ4ONwU/8u9hL3bikBI6fcYQaudyP1++izZwHBeE/n0OJ/yydAZ97dQJ9HX2tLEA/Q5vP/vbW/uFRBFnRvgDDjr8B9S6gYn8/T3NdOq0wVLvOzsUmeLJD954J+vbwUd46L+6dCY7C3mi7y9e3Ckq3/9uNc3jieBjx47iBcMhUudLWw/Tfz2+Ve53cmVoI2TJ06RcNX8MAqkhkNfV2d2Hx86ODh4Q330zijR0c6ZixH0NKUfByFyOhwA+SfcnjjMvnVJF1/BOh1fW10sRhB8evX4BbeIFwE/85QMaN7SYDjZ2UY0VV9ZyufvR8MElNKKyQOK8+3hXB0gYXi0chQD96xLujnhcHM2TwbCKQtrFuz/qeT+yM1WVFdAEDn8gnryHt8ShPpMMAl4i8NvFB2nIkCE0ZswYSshTlhAGk7JJBoFkEJg+uoz381bQVt51sYY92EgJHvLanYHFOGceEPCBQ23ySpWIg+Tym70sF69I6TCHNPAyySCQCQQSIGVsnOBFP/aqxVs25JwJ+wyoOsbzd2Ps5A91/GPlgaDQRTNvmfuAP0W3hUkRn/CLlrwk4mh1mOsGgf5GIAYpBwaHcwsbzp3v+7sBpv7cQeCZ1bWEV2iqrmujK27njz1HSIaII4BiLg1oBEJIOTIRyz5ijloYMh7QfSFrGmeIOGtMYRTpBwSYlEHE6qVJF+/0uX3sB+VMlUcOAoaIjxxbm5bGRsAP0pUXPshhxYnNx5xjg2bueoMAiBhJH9U789cgcGQj4MdeInwZDL4sSJPykQ2JaX06EdAErI/prMvINgjkIgJ+kDH2KZtkEEgXArp36WO66jFyDQIDAYGQhb6B0CTThmxAQBOwPmaDTkYHg0AuIGBIOReslCM6agLWxxxR26hpEMgqBAwpZ5U5ck8ZTcD6mHstMBobBLILAUPK2WWPnNEGJIwP3BsyzhmTGUVzBAFDyjliqGxQUxNxsl/8kw1tMDoYBLIdAUPK2W6hftbPEHE/G8BUf8QhYEj5iDN5/AYbIo6PkclhEEgXAoaU04Vsjsk1RJxjBjPqDlgEDCkPWNPGb5gh4vgYmRwGgUwjYEg504j3c32GiPvZAKZ6g0AEBOzvIOLvH7JJ2XzvRQSkBsglQ8QDxJCmGQMWAXzdhf7+oTz+3gv+QRH+AcjOTmpqaqLq6mqqqamhxsZGudbT0yO/ODJg0TANMwgYBAwC/YQAnGGfz0fFxcVUVVVFI0eODPaU9c2Kigr5xriuri75siKQtkkGAYOAQcAg4C0CIGV4yEVFRVReXi5HCV9oti4sLKRBgwZJprKyMtJesiFlbw2RLmkmBJUuZI1cg0B6EMCYxcvv94u3DGK2Y8pga5AyEjKAkPGVniBkQ8rpMYgXUg0Re4GikWEQ6B8ENCmDfwsKCgKeMtTBzaab59qa+fgML5OyCAErioTvnDDJIGAQGDgIFH9zpUQoEEK2PeWB07wB1hJDxAPMoKY5BoFwBBCZQILHbJOyCVGEA9VvVwwR9xv0pmKDQH8ggJ1vCF9gF4aQMgi5u7u7P3QxdWoEDBFrJMzRIHDEIbB//34qLS2VbXHGU+5v8zMZmxhxfxvB1G8Q6F8E6urqxDHGZgvbUzY/nppBoxgiziDYpiqDQPYj0NLSIrvf8NkQ4ylnyl6GiDOFtKnHIJBzCICMEULGgp9NyjnXilxQ2MSJc8FKRkeDQL8joD8PgqMhZa/NYYjYa0SNPIPAgEdAkzIaakjZC3MbIvYCRSPDIGAQYAQMKSfbDQwRJ4ucKWcQMAjEQMCQcgxwwm4ZIg6DxFwwCBgEvEXAkHI8PA0Rx0PI3DcIGAQ8RMCQciQwDRFHQsVcMwgYBDKAgCFlDbIhYo2EORoEDAL9iIBfbcWgI/M7kw0R92PXM1UbBAwCkRDw80/0UR9/mT0xQcmvPllEhS9k4K9YHnjJEPHAs6lpkUFgACEgnjL/dKr8yggI2k58mp+PnypRZJ3zBM3tGYhzjG0vc2IQMAgMCAT8TLvyT1pjcTL7znLNSdIgaJ1yhqANEWuTmaNBwCCQIwiELfRpQhb9HSSNCEeAjJUHnZVtNESclWYxShkEDALuEHCQsvKE4TdHSlgQlACAHNiT9kXOF6ls2q8ZIk47xKYCg4BBIDMIWKQMpo2fFDFzvr48/oq5Pok5o1TAg44vw7MclspZNDV41rRogvL8/Ptd00+QabNr8+vU182PL5x8w8eQf/xC6t75PvXUVUcr7s11Brxg8nwqmHIK5ZUPo76WQ9S1/TXq2vYekXNNwpvakpZStOBsKj7hC9T+1u3U8f6TScsJK4j2Tz2aX9z+wjLq3reSOtc8R32dnWFZzQWDQDIIWKQcm9oiec8gaBXSyGAo4wgk4iCjllVS2dn/LZca9l1G1FAv54VzL6CSU/6d2pbfTG2v/DGoiOs3vnwqu+jH5B85i5rvv57J/WBY0Tz+VYSSZd+honmXUV5+4LfOiz70eepa9xi1PPZf1NfREVYu3Rd8w0ZT+eW/pa7qNdT66PeIenopv2wY+YZOpfzSYd5Vz8Ok+OTPUMnJX+d2NlJvewMVLryGyfn71P7G/UnXU3T0eVRy6reodfmPqXP1c0nLMQUHBgKO8EWWNuhIJ+IkzZLHP8LoGzONn2p6qPfgLiaQ9iBJ+VWDyTdkPPU21VFP7V7KLygkX+UYyqsYzURWSb0NtbYnrgsWL75CCLnn0DZqe/Im6qneSv5Ji6iUJ4qC2R+mwt1vUcdbD6htLvyrvJi1fcPHUV7pIOrZu5n6+Iu8nck3ZBjlV42h3vq91HO4jnW17sJH4McvEL9v7HTqrWH9W1sov6SU8kdNYdLtot4DO6gXEwDnhfz8QaPJ13aI8otKqLethdpev4fa374v0AaedKBPns/PuExlD7+Beg7xU4Wuk6vMLy2j/BGTqK/5EONySPI7dc4rr6DCeRfz/YPU9NdrqKdmL/lHcX7GWBIWw/HYyJOCnVAvknUtFHfkzy8fRfmMva9iJMFudp1c1j9yErvmRdze7cE2hFyWmTdoEE8+E6i3ehu3u1XKw+59jQepp54xNSnnEHBFymovhqP3cjPhPetwRh+HMzwNYRgiTqkjFc5cQqXn/pjyB48XOX0dzdT+0s+p7c175T28vdKTvszfEVgke9TbX/gpFcw4g0Mgx8n9ik8/wSGJV6j5b9czqakf1M3Hr+wy8eb19ohH3rVtteTtXPcKE8rtVAJinnYmdbz7EJVf9Rsm+NFMejtZ7llCrnjMb/nH54Uo8vx+KjnjS1S8+DOsQyHPG93U8cEDTPQ/5vq67PK9LbVM+idRO3uQfT720k/8EnulpVJvDxNj6yNfJepooPKP/pXySiqpgPNWfXMFtT77PSa2Nio97yfU9tz3qWvLK1T+ib9Tz443KH/YVCbSuVxnF3W88Vv2Tm8TYi5acA5j9iOOBRUILpgQ+trqqenuqzlEsVXqzON7+b5iyiuqIN/gcULK3dU71D1uU/nVvyP/mIXUdO/HOZS0Xgiz4tr7iLrbqfkv11LhcR8Nxv1fP6A+fzGVnH6jyCg567tUdOIXqZnr7OtsobILbyHfhCU8tnistTWwrj9kfB+louMvpdLTbqLOdf+kwtkXUV7xIJ5E9/JT0q1UtOR68g9jUub2t7L8jrceFNnmT+4gYE3jkRUGGSNxl4icwcurqIJfeXhJnV4KH1iy8sqGUtl5/03ll90ir8Kjzrcb6Bs6nErO/SG7fT5qfvDz1HTfdexl1lHx0q+Rf9wMJpPhVHz01dR14ANqvP08annwBurev5raX/k1k8wmfixvptbnf8LvfylkqQXnlTERsUcHWb0HN+nLcuw5uIGISSC/YoRMzuKNjjiK8odPp7YXb5G4K8iqaNFVkr9wzulCyB0c8mi6c5kQctHcS6lwzhnB5asmUDvr0rX7XcovLmdZP2Wdz6WWp26i/MJylnEd67yb2l+9lfVuIejR8vh/UNfG5ZTHZJ/H3noekzkvfsjEUDD7Aupj8kLboG/hvEv5aYG91HKWxWTYc3AtNfzv8Uzk/61I+727OYyzx25rb9Nh6t71JpNgBZVf8QcOmfwvk/AUuY/Jq3vbS0RM2IUzzpZr/jFzyc9t6OEJKa+E6wjF/eB6Dvs8RR1rHpH8HasfoNYn/5OfGg5Q8alfJ9/oBdT27Hd4YriCepurqeSkr7JXPEraAiIunHMxx8vvpq5N/+KJcSyVnv8T9qjXUfs7dzGO+VS08Gpbd3OSOwjE9JSjkbEma2FRbmvSXrLF9Yr6cwe0/tYU3mLhrHMjquEbM58H6Hj2qO7iBajlkqdz9AMSc/aPPZo61z/L3nEPhw0m8oLdEupY8YiEBuC9FrUcJBB+18bnqOfA7mD5+ezR8qM/dbVTL3uzztTXzWGE3m4hAn1dyP3xb1L39jVMSquYxO7kUMTRcrtg+lmsA5PYnrdZZgH17F9DxB4fiLtz9dOSp4/raX2GvdwNr8n77p3rmGjzuW0j2Cuspt7OZqLyofJI37XtDfYwO5i4DlLnysclZMH+bljqqV5NLQ9/g3q7OoXw/OOO4fZWsu5d7IGXU/eBDSyX5TBx5/GaSU/dluAYOYcLWp/6IfW0H2aCvYZJ8QJ+OjiNifRG6lj1LHVueoEK2VMtmHYq5b/2Byqcfjrr0Md4MuY9nRFxh5K9+1cSzfsI48CLhh+8wLYZQgXjFlPv4V086WyTst37P6AiflLxDZlgt6vj7TvZe/5/5J/M5D9xCU+uq6jlkZs4hMG/iMxPPfmlQ+y85iR3EIhJyroZ2LvM7oZ+m9rREHFq+HHp3vrd1PSXK6inUS30lZz8OSbdr4tc3yB4UvkcU9xv19PbfEDOsfjVe/gQtb/4Mw4ffJtKzvoeFfIiXdtj7F1ufdfOH/GEH8HzuplYCorZSy2lHlJ1I29eyWAmzGLq44UvO4HoOtvkLXZo9HXzeWEJ5/MzETJZFJRQ6Vn/zZxlxV853tvX3mQXJ+RvUnrj0anouMt4ke3rTDRDORzAkwB7wL0NAS82UDDGGXvHffzDlIjF9nW1suLcp/P9HD+uF2++cPoZRBf/j0wevVx39+5VYcIQm2976hbqfPMuxvBGjqVfwOGEzwop99Ttox726gumnU4F008SYuyp30nde9fyhNEUEffOjW+G1ZHPXnAfY4U4MzxynXoY376edv2WJwyFV55Mij3cpnYhfoSYMAmoZ047uznJEQRckTLix9or1u2SD5mwi+zKSzZErGHz7NiLrS/W4pHTNr3NvEDHXl4eL3zplF8xRk57GvfJUby6DS/x4/+VQnTFJ9zApPwZnZ2P4RNwb0sT9TbuIR97cAXTTmIP7u+SH95rIRMTYsPde94PyGDPmjjkgJSPiaKgjOOijUwW3XIkDpM03Xctde9YGyjDZ5AXmnxDR3M8+d+4/n3UcMcyuT3oOmesVHcw9FOUdyy0hQqL8D6vvIryR86m7momYZ5Mujc8zST7IC+ABiY2KSbiWT7jjkW0tlduI9/kEzmcwd42El/v5JAM4uhFS7/MpDqO5dwnhIzbkXAHKSunBzlU2/v4KQBEK57v3dcFL/BxLh/vkDFp4CIQl5QjLfIBDiw+qFcUcPQ4iXLbXE4PAt3711JfUzUVzjyfdzyskjBB0fzL5JG8e/tb5BsxjoqXfJLDAs9SL4crqKeDPSz2gEGW7UwGRZVU/KFPc+z0DSaRZ2zixz7cjtUPUunYY3j71o28C2IO9dVulYWogqmnivfesZJ3Xlgpr6iMSj/8c+r64GHyI+bNnm3Pjldl/uhi2QUzz+E47r9Rh//3TIT8s+pjFvBe59c5rrtdiwgcseiG0ElBKflHz+E6j+c48Ajqgf6csCiGsEr+iFn8xHA9dW59IVDWxVk+LxIiRpsP77uJQzgcMy6YehLvZniCsQx479ifXXL+zRySeYVj0/vIP2Up7wgZIvu0dTVdO99hwt7Ji23TxXPt3vgvuRUNd9zsazssE2nBXF60Y++9YwPCR+t5L/hSxujT1LnleX4aGcIyp3JY6n5dlTkOUATikrIzrqy9Y2ABQlZHOag/hogdYKThlMmrl0lUEp/biR/FsZugr5sXu2r28ILYT6j4jO9Q2cW/Vlk5Rtr6zHf53l5e6BtKfibWokUfV/c4FNL+utqB0MkEWjB5KS8QXcXe7RiO7z4jgStdT8eKx3jLWQXHb3nnxAK1aIdvGOzZ+y61Pf19ka893b7OVo5V10pehAm6NsL7/KeI6lzxT/LzImDRgo9acVcQUwN7hmuYnDgLhxl6EYPliQIJYYGudbzrYNG1VH7lXRJq6K7ZQHnyiM73D9eyp/887xm+mop4V0lvaw1jgfKMCfCCnC5MPnwuFfCBwzEcQBYZPfX7qa9uK5P6bN7CN0NCJIWMD+L2zfdcr7besR7ddTup7/BeKjrmE7LYhth895blvBvlJ6In/vQ1NlLX5udkj3Rv/XYOXaxT97hNEXHnu91M5L3cngK2C2L9nVtf4VjxzVRaWiXtKV76FSHtbsa54/0Hg9uGOru5X3BbMDGhffKkJDFshZ9SwPzNFQTyujq7eVz1Ugfv+Wy75eioemtCBhXnYT+mlYSbeSAFrug75tifCCB2m887C7D7oIf3+eqtbaIT73H1DRsvE2tP7Z6ge3kVg3jHwEjZu4x9r5GSyB46lr3qYg4pHOQ4tSO+zOGH8qtvZ492HhPax/jRG7Fb/gQo74UO/cQf9h37hvA+ZV447K3bG6RHWL3cwXxVQ2U7Wje3JxC6sXLiPoc58jhW3X1wR/j9MIGBC0XHfJhKl93Cuy6+Jx8Cwfa/8mv/wh9AGa5i93U1gcx8hoU4H8fFu9mr7mtqZCIMus0x5suo9JwfyWJr65M/C9yMhTv2lQ+fwHHiRp6ErPq4TfmVXFcFL2i2HuYthnw9pK6AcHOWywg8O+sHNGTIEBozhj+dG7chFtvmC/uq6DLK4LLcMp0kLoT9kQEk3HNwT+SqERM9sDPiPZBMF4gmRhLZUcoHFeOPXcM7j5ZA+r17t0S7HXyd+5n6MERd8HX9DvdDY8D6Xpyj9qALZ50vXqZv6BSetGawx7ucwz6BCUeLwWIpXpESPvwhWxTZU+3e/EJwlli48wdr9H5ouxC3KVZddj5zMqAQiE7KFhk7W4tQhiJn51VzbhAIIIDoQHfNRvGOezlGnQupa91yai28kfcXn0tF8y/nWHI9f9jmFup4D6GCxEIA+eWDJITQuf5x3r2xJheab3TMMgSihy+YlMHLcJBlTVg85SzT3qhjEDAIGAQGAAIxwxfgXkPEA8DKpgkGAYNATiKgwhfwhvn7kWWLqPGIc9KQRmmDgEFgYCDg9zET58v3I3OQwhDywLCqaYVBwCCQswjwuh0ixyYZBAwCBgGDQDYgoD7XmQ2aGB0MAgYBg4BBIMKXHBhQDAIGAYOAQaDfEDCecr9Bbyo2CBgEDALhCBhSDsfEXDEIGAQMAv2GgCHlfoPeVGwQMAgYBMIRMKQcjom5YhAwCBgE+g0BQ8r9Br2p2CBgEDAIhCNgSDkcE3PFIGAQMAj0GwKGlPsNelOxQcAgYBAIR8CQcjgm5opBwCBgEOg3BAwp9xv0pmKDgEHAIKAQ0L95ineGlE2vMAgYBAwC/YyAJmUc7V8ewZvuL7xK1dXV8mpoaKBO/gXjnp4e+YmcftbZVG8QMAgYBAYcAuBdn89HJfybmjjiJaSMG/n5+eTnGwX8G2MlJfzjk/wzOIWF/KObhpQHXEcwDTIIGASyAwFNykVFRVTMP9gLDg7ylHGhrKzMJmQQM37pGj9ZbpJBwCBgEDAIeIuAdojhDIN7S0tLKY8JVxgX5ItwRWtrK7W3tweFLgwpe2sII80gYBAwCAABkDJecIjhLSNKYZMyMoCYu/inzhGywDleJhkEDAIGAYNAehFA+FjHlP8/5X9SZbdIZY8AAAAASUVORK5CYII=;" vertex="1" parent="1">
          <mxGeometry x="40" y="120" width="258.46" height="160" as="geometry" />
        </mxCell>
        <mxCell id="Z5ivjOflvWGN5nWNWYl_-3" value="" style="rounded=0;whiteSpace=wrap;html=1;fillColor=#d5e8d4;strokeColor=#82b366;" vertex="1" parent="1">
          <mxGeometry x="320" y="250" width="30" height="30" as="geometry" />
        </mxCell>
        <mxCell id="Z5ivjOflvWGN5nWNWYl_-4" value="" style="rounded=0;whiteSpace=wrap;html=1;fillColor=#d5e8d4;strokeColor=#82b366;" vertex="1" parent="1">
          <mxGeometry x="320" y="220" width="30" height="30" as="geometry" />
        </mxCell>
        <mxCell id="Z5ivjOflvWGN5nWNWYl_-5" value="" style="rounded=0;whiteSpace=wrap;html=1;fillColor=#d5e8d4;strokeColor=#82b366;" vertex="1" parent="1">
          <mxGeometry x="320" y="190" width="30" height="30" as="geometry" />
        </mxCell>
      </root>
    </mxGraphModel>
  </diagram>
</mxfile>
